# xmcd CD database file
#
# Track frame offsets:
#	150
#	35208
#	69165
#	84494
#	122408
#	145215
#	189970
#	216695
#	252863
#	294080
#
# Disc length: 4032 seconds
#
# Revision: 0
# Processed by: cddbd v1.5.2PL0 Copyright (c) Steve Scherf et al.
# Submitted via: CDex 1.79
#
DISCID=8f0fbe0a
DTITLE=John Hiatt - Vic Theatre, Chicago, 6th December 1990 CD 2
DYEAR=2015
DGENRE=Blues
TTITLE0=Riding With The King
TTITLE1=Memphis In The Meantime
TTITLE2=Tennessee Plates
TTITLE3=Slow Turning (Extended Chorus)
TTITLE4=Have A Little Faith In Me
TTITLE5=Little Thing Called Love - Improvisation - Band Intros
TTITLE6=Through Your Hands
TTITLE7=Rock Back Billy
TTITLE8=Heaven Help Us All - Improvisation
TTITLE9=Outro DJs
EXTD=YEAR: 2015
EXTT0=
EXTT1=
EXTT2=
EXTT3=
EXTT4=
EXTT5=
EXTT6=
EXTT7=
EXTT8=
EXTT9=
PLAYORDER=
